# xmcd
#
# Track frame offsets:
#	150
#	23497
#	47682
#	75662
#	99752
#	104437
#	129550
#	133505
#	140712
#	168387
#	172507
#	197835
#	205840
#	214072
#	274927
#
# Disc length: 3714 seconds
#
# Revision: 0
# Processed by: cddbd v1.4PL0 Copyright (c) Steve Scherf et al.
# Submitted via: EasyCDDAExtractor 5.0.0.0
#
DISCID=c90e800f
DTITLE=T. Bubba - I'm Confused
DYEAR=2001
DGENRE=Country Comedy
TTITLE0=Intro-The Redneck Riviera
TTITLE1=How To I.D. A Bubba
TTITLE2=Diet
TTITLE3=Guilty By Geography
TTITLE4=Bless Your Heart
TTITLE5=Southern Politics
TTITLE6=Bubba Don't Jog
TTITLE7=Un Presidential Fun
TTITLE8=Bubba Jr. and Little Bubba
TTITLE9=Southern Football
TTITLE10=I'm Confused
TTITLE11=Political Correctness
TTITLE12=Bubba Shops At Wal-Mart
TTITLE13=The Igmos
TTITLE14=Good Night
EXTD=
EXTT0=
EXTT1=
EXTT2=
EXTT3=
EXTT4=
EXTT5=
EXTT6=
EXTT7=
EXTT8=
EXTT9=
EXTT10=
EXTT11=
EXTT12=
EXTT13=
EXTT14=
PLAYORDER=
